<!DOCTYPE svg PUBLIC "-//W3C//DTD SVG 1.1//EN" "http://www.w3.org/Graphics/SVG/1.1/DTD/svg11.dtd">
<!-- Uploaded to: SVG Repo, www.svgrepo.com, Transformed by: SVG Repo Mixer Tools -->
<svg fill="#000000" width="800px" height="800px" viewBox="0 0 24 24" id="mute-2" data-name="Flat Color" xmlns="http://www.w3.org/2000/svg" class="icon flat-color" stroke="#000000">
<g id="SVGRepo_bgCarrier" stroke-width="0"/>
<g id="SVGRepo_tracerCarrier" stroke-linecap="round" stroke-linejoin="round"/>
<g id="SVGRepo_iconCarrier">
<path id="primary" d="M17.45,2.11a1,1,0,0,0-1,.08L9.84,7H6A2,2,0,0,0,4,9v6a2,2,0,0,0,2,2H9.84l6.57,4.81a1,1,0,0,0,1,.08A1,1,0,0,0,18,21V3A1,1,0,0,0,17.45,2.11Z" style="fill: #c3c3c3;"/>
<path id="secondary" d="M21.8,4.78a1,1,0,0,0-1.39-.22l-18,13.26A1,1,0,0,0,3,19.63a.94.94,0,0,0,.59-.2l18-13.26A1,1,0,0,0,21.8,4.78Z" style="fill: #ff0000;"/>
</g>
</svg>