<!DOCTYPE svg PUBLIC "-//W3C//DTD SVG 1.1//EN" "http://www.w3.org/Graphics/SVG/1.1/DTD/svg11.dtd">
<!-- Uploaded to: SVG Repo, www.svgrepo.com, Transformed by: SVG Repo Mixer Tools -->
<svg version="1.1" id="_x32_" xmlns="http://www.w3.org/2000/svg" xmlns:xlink="http://www.w3.org/1999/xlink" width="800px" height="800px" viewBox="0 0 512 512" xml:space="preserve" fill="#000000">
<g id="SVGRepo_bgCarrier" stroke-width="0"/>
<g id="SVGRepo_tracerCarrier" stroke-linecap="round" stroke-linejoin="round"/>
<g id="SVGRepo_iconCarrier"> <style type="text/css">  .st0{fill:#808080;}  </style> <g> <path class="st0" d="M212.969,278.609c15.938-44.594,56.344-76.75,103.688-82.141c-15.469-44.016-57.375-75.5-106.656-75.5 c-62.438,0-113.109,50.594-113.109,113.047c0,29.781,11.531,56.859,30.375,77.078c21.672-20.156,50.734-32.547,82.672-32.547 C210.938,278.547,211.906,278.609,212.969,278.609z"/> <rect x="193.516" y="24.047" class="st0" width="32.938" height="63.406"/> <polygon class="st0" points="117.984,118.734 73.156,73.906 49.859,97.188 94.688,142.031 "/> <rect y="217.563" class="st0" width="63.406" height="32.938"/> <path class="st0" d="M49.859,370.844l23.266,23.328l17.578-17.594c2.766-14.109,7.969-27.344,15.219-39.266l-11.266-11.266 L49.859,370.844z"/> <polygon class="st0" points="370.125,97.188 346.813,73.891 302,118.734 325.281,142.031 "/> <path class="st0" d="M422.578,304.344c-9.234-42.828-47.281-74.922-92.859-74.922c-46.063,0-84.438,32.75-93.156,76.25 c-5.156-0.891-10.438-1.453-15.844-1.453c-50.75,0-91.875,41.125-91.875,91.859c0,50.75,41.125,91.875,91.875,91.875 c43.359,0,156.75,0,199.406,0c50.75,0,91.875-41.125,91.875-91.875C512,346.156,472.188,305.641,422.578,304.344z"/> </g> </g>
</svg>