<svg xmlns="http://www.w3.org/2000/svg"  viewBox="0 0 50 50" width="50px" height="50px"><path d="M 11 3 L 11 9 C 11 9.552 11.448 10 12 10 C 12.552 10 13 9.552 13 9 L 13 3 L 11 3 z M 22 3 L 22 11 C 22 11.552 22.448 12 23 12 C 23.552 12 24 11.552 24 11 L 24 3 L 22 3 z M 28 3 L 28 8 C 28 8.552 28.447 9 29 9 C 29.553 9 30 8.552 30 8 L 30 3 L 28 3 z M 36 3 L 36 20 C 36 20.552 36.447 21 37 21 C 37.553 21 38 20.552 38 20 L 38 3 L 36 3 z M 15.5 11 C 13.026563 11 11 13.026563 11 15.5 C 11 17.973437 13.026563 20 15.5 20 C 17.973437 20 20 17.973437 20 15.5 C 20 13.026563 17.973437 11 15.5 11 z M 30.949219 12.589844 C 30.371051 12.566226 29.782193 12.708188 29.257812 13.033203 L 23.5625 16.558594 A 1.0001 1.0001 0 0 0 23.353516 16.660156 C 23.122321 16.809626 22.913996 16.953131 22.712891 17.085938 L 22.458984 17.242188 C 22.289292 17.346946 22.232375 17.408951 22.273438 17.378906 C 20.474367 18.583038 18.787541 19.834588 17.244141 21.169922 C 17.242841 21.170808 17.241534 21.172928 17.240234 21.173828 C 17.01812 21.320963 16.774532 21.513403 16.558594 21.779297 A 1.0001 1.0001 0 0 0 16.556641 21.779297 L 13.134766 26 L 8.5625 26 C 6.9175302 26 5.5625 27.35503 5.5625 29 C 5.5625 30.64497 6.9175302 32 8.5625 32 L 14.5625 32 C 14.760833 32 14.85656 31.975552 14.845703 31.976562 A 1.0001 1.0001 0 0 0 14.863281 31.974609 C 14.848961 31.976209 14.866485 31.97531 14.921875 31.96875 A 1.0001 1.0001 0 0 0 14.923828 31.96875 C 15.083065 31.94958 15.243056 31.917374 15.400391 31.871094 C 15.441541 31.859274 15.475747 31.848937 15.498047 31.841797 A 1.0001 1.0001 0 0 0 15.513672 31.835938 C 15.64016 31.793318 15.772902 31.740498 15.908203 31.671875 L 15.916016 31.667969 C 15.974306 31.638509 16.024173 31.611754 16.0625 31.589844 A 1.0001 1.0001 0 0 0 16.070312 31.583984 C 16.177996 31.521174 16.276446 31.454686 16.369141 31.384766 L 16.375 31.380859 C 16.45065 31.324139 16.510123 31.271313 16.556641 31.230469 A 1.0001 1.0001 0 0 0 16.568359 31.220703 C 16.645699 31.150663 16.715347 31.079128 16.78125 31.005859 L 16.794922 30.992188 C 16.769662 31.022848 16.804822 30.996388 16.900391 30.878906 L 16.908203 30.871094 L 17.599609 30.017578 L 18.363281 35.248047 A 1.0001 1.0001 0 0 0 18.617188 35.78125 A 1.0001 1.0001 0 0 0 18.619141 35.783203 C 18.90721 36.52008 19.414432 37.17498 20.197266 37.498047 C 20.197266 37.498047 20.199219 37.5 20.199219 37.5 L 26 39.974609 L 26 45.978516 C 25.666318 45.985475 25.337715 46 25 46 C 19.316796 46 14.175889 45.001391 10.544922 43.445312 C 8.7294383 42.667274 7.2960375 41.747901 6.3613281 40.800781 C 5.4266187 39.853661 5 38.927522 5 38 C 5 36.970242 5.533157 35.929514 6.6914062 34.884766 A 1.0001 1.0001 0 0 0 6.0527344 33.132812 A 1.0001 1.0001 0 0 0 5.3515625 33.400391 C 3.9178117 34.693643 3 36.269758 3 38 C 3 39.557978 3.74885 40.998667 4.9394531 42.205078 C 6.1300562 43.411489 7.773046 44.432617 9.7578125 45.283203 C 13.727345 46.984376 19.085204 48 25 48 C 25.681308 48 26.35232 47.983478 27.017578 47.957031 A 1.0001 1.0001 0 0 0 27.029297 47.957031 C 32.134865 47.752881 36.732548 46.787285 40.242188 45.283203 C 42.226954 44.432617 43.869944 43.411489 45.060547 42.205078 C 46.25115 40.998667 47 39.557978 47 38 C 47 36.922917 46.639914 35.888775 46.027344 34.96875 A 1.0001 1.0001 0 1 0 44.363281 36.078125 C 44.798711 36.7321 45 37.359083 45 38 C 45 38.927522 44.573381 39.853661 43.638672 40.800781 C 42.703962 41.747901 41.270562 42.667274 39.455078 43.445312 C 37.399252 44.326352 34.848288 45.019341 32 45.462891 L 32 38 C 32 37.181726 31.659512 36.431661 31.123047 35.890625 C 30.85938 35.611929 30.532787 35.378285 30.15625 35.222656 L 27.8125 34.224609 L 32.947266 31.044922 L 39.333984 34.515625 C 40.779172 35.300794 42.61696 34.758083 43.402344 33.3125 C 44.18647 31.866256 43.643787 30.027272 42.197266 29.242188 L 34.291016 24.945312 A 1.0001 1.0001 0 0 0 34.28125 24.939453 C 34.11914 24.853433 34.040334 24.832275 34.066406 24.84375 A 1.0001 1.0001 0 0 0 34.044922 24.835938 L 34.035156 24.832031 L 34.019531 24.826172 C 33.877827 24.766172 33.721566 24.710811 33.546875 24.669922 C 33.469115 24.651482 33.424081 24.643198 33.449219 24.648438 A 1.0001 1.0001 0 0 0 33.435547 24.646484 C 33.322196 24.624544 33.182576 24.600577 33.017578 24.591797 C 32.897467 24.584897 32.80999 24.589344 32.779297 24.589844 A 1.0001 1.0001 0 0 0 32.765625 24.589844 C 32.716895 24.591444 32.622473 24.592842 32.5 24.607422 C 32.343429 24.625212 32.211651 24.654791 32.105469 24.681641 A 1.0001 1.0001 0 0 0 32.085938 24.6875 C 32.098127 24.6841 32.055878 24.693103 31.966797 24.720703 C 31.803871 24.770523 31.659155 24.832441 31.527344 24.896484 A 1.0001 1.0001 0 0 0 31.513672 24.902344 A 1.0001 1.0001 0 0 0 31.511719 24.902344 A 1.0001 1.0001 0 0 0 31.470703 24.921875 C 31.504073 24.904835 31.423173 24.929075 31.255859 25.033203 L 26.748047 27.824219 L 25.763672 22.291016 L 32.416016 18.132812 C 33.813774 17.266471 34.253425 15.402252 33.386719 14.003906 C 32.953548 13.305027 32.270848 12.844126 31.521484 12.667969 C 31.334144 12.623929 31.141941 12.597716 30.949219 12.589844 z M 15.5 13 C 16.892557 13 18 14.107443 18 15.5 C 18 16.892557 16.892557 18 15.5 18 C 14.107443 18 13 16.892557 13 15.5 C 13 14.107443 14.107443 13 15.5 13 z M 30.685547 14.589844 C 30.813673 14.568936 30.942963 14.574469 31.066406 14.603516 C 31.313293 14.661606 31.538671 14.81652 31.6875 15.056641 C 31.984794 15.536295 31.843523 16.135936 31.363281 16.433594 A 1.0001 1.0001 0 0 0 31.359375 16.435547 L 24.130859 20.953125 A 1.0001 1.0001 0 0 0 23.675781 21.976562 L 25.037109 29.626953 A 1.0001 1.0001 0 0 0 26.546875 30.302734 L 32.296875 26.742188 L 32.310547 26.732422 A 1.0001 1.0001 0 0 0 32.3125 26.730469 C 32.23987 26.775659 32.26783 26.759948 32.375 26.705078 C 32.3811 26.702278 32.386158 26.700366 32.392578 26.697266 C 32.459138 26.664636 32.51243 26.644972 32.552734 26.632812 A 1.0001 1.0001 0 0 0 32.560547 26.630859 C 32.540247 26.637159 32.575396 26.627094 32.597656 26.621094 C 32.663736 26.604464 32.705462 26.59592 32.724609 26.59375 A 1.0001 1.0001 0 0 0 32.740234 26.59375 C 32.731934 26.59485 32.767453 26.591644 32.814453 26.589844 C 32.895243 26.588444 32.920385 26.589784 32.894531 26.587891 A 1.0001 1.0001 0 0 0 32.912109 26.587891 C 32.932909 26.588991 32.979689 26.596092 33.041016 26.607422 C 33.049816 26.609222 33.037922 26.605922 33.044922 26.607422 C 33.049722 26.608315 33.049687 26.608358 33.054688 26.609375 C 33.067548 26.611975 33.104799 26.618928 33.074219 26.611328 A 1.0001 1.0001 0 0 0 33.091797 26.615234 C 33.129717 26.624034 33.182877 26.642095 33.251953 26.671875 A 1.0001 1.0001 0 0 0 33.259766 26.675781 A 1.0001 1.0001 0 0 0 33.277344 26.681641 C 33.281444 26.683441 33.277662 26.681986 33.28125 26.683594 C 33.33649 26.707584 33.391505 26.732371 33.34375 26.707031 L 33.335938 26.701172 L 41.244141 31 C 41.739619 31.268916 41.914405 31.859666 41.644531 32.357422 C 41.375915 32.851839 40.783876 33.026643 40.289062 32.757812 L 33.392578 29.009766 A 1.0001 1.0001 0 0 0 32.388672 29.037109 L 26.564453 32.644531 C 26.39036 32.751535 26.100333 32.94757 25.777344 33.164062 C 25.45287 33.381552 25.152344 33.585938 25.152344 33.585938 A 1.0001 1.0001 0 0 0 25.318359 35.333984 L 29.378906 37.066406 A 1.0001 1.0001 0 0 0 29.390625 37.070312 C 29.524211 37.125293 29.61099 37.189659 29.679688 37.263672 A 1.0001 1.0001 0 0 0 29.705078 37.292969 C 29.887719 37.475114 30 37.718248 30 38 L 30 45.703125 C 29.345786 45.773945 28.677451 45.827747 28 45.871094 L 28 39.3125 A 1.0001 1.0001 0 0 0 27.392578 38.392578 L 20.972656 35.654297 A 1.0001 1.0001 0 0 0 20.960938 35.650391 C 20.635462 35.516431 20.425959 35.239468 20.361328 34.923828 A 1.0001 1.0001 0 0 0 20.001953 34.339844 L 20.28125 34.541016 L 19.248047 27.472656 A 1.0001 1.0001 0 0 0 17.482422 26.986328 L 15.347656 29.621094 A 1.0001 1.0001 0 0 0 15.339844 29.628906 C 15.416324 29.532466 15.416723 29.537987 15.314453 29.648438 A 1.0001 1.0001 0 0 0 15.300781 29.662109 C 15.274161 29.692059 15.250282 29.716801 15.226562 29.738281 C 15.202053 29.759441 15.181641 29.77689 15.175781 29.78125 A 1.0001 1.0001 0 0 0 15.167969 29.785156 C 15.130179 29.813786 15.096709 29.837462 15.0625 29.857422 C 15.03983 29.870252 15.021872 29.878713 15.013672 29.882812 A 1.0001 1.0001 0 0 0 15.005859 29.888672 C 14.972009 29.905992 14.929929 29.922896 14.875 29.941406 C 14.86395 29.944906 14.850379 29.949019 14.849609 29.949219 A 1.0001 1.0001 0 0 0 14.835938 29.953125 C 14.789267 29.966855 14.742308 29.975582 14.685547 29.982422 C 14.702897 29.980322 14.690748 29.981028 14.642578 29.986328 L 14.660156 29.986328 C 14.52126 29.999344 14.494167 30 14.5625 30 L 8.5625 30 C 7.9974698 30 7.5625 29.56503 7.5625 29 C 7.5625 28.43497 7.9974698 28 8.5625 28 L 13.611328 28 A 1.0001 1.0001 0 0 0 14.388672 27.628906 L 18.111328 23.039062 C 18.162048 22.976852 18.233434 22.912068 18.345703 22.837891 A 1.0001 1.0001 0 0 0 18.451172 22.757812 C 19.945923 21.45562 21.617852 20.220944 23.417969 19.017578 A 1.0001 1.0001 0 0 0 23.453125 18.992188 C 23.576673 18.901788 23.594296 18.892243 23.507812 18.945312 A 1.0001 1.0001 0 0 0 23.507812 18.943359 L 23.787109 18.771484 A 1.0001 1.0001 0 0 0 23.814453 18.755859 C 23.975111 18.649764 24.119711 18.554038 24.265625 18.457031 A 1.0001 1.0001 0 0 0 24.425781 18.376953 L 30.310547 14.732422 C 30.43046 14.658098 30.557421 14.610751 30.685547 14.589844 z"/></svg>