<svg xmlns="http://www.w3.org/2000/svg" viewBox="0 0 48 60" x="0px" y="0px"><defs><style>.cls-1{fill:none;stroke:#000;stroke-miterlimit:10;stroke-width:0.25px;opacity:0;}</style></defs><title>Artboard 17</title><g><g data-name="volume off"><path d="M26,12.56V7.93a2,2,0,0,0-2-2,2,2,0,0,0-1,.27h0l0,0a2,2,0,0,0-.5.43L12,15.93H6a2,2,0,0,0-2,2v12a2,2,0,0,0,2,2H9.06Z"/><path d="M38.59,10.3l.91-1a2,2,0,1,0-3-2.63l-28,32a2,2,0,0,0,3,2.63l4.81-5.5,6.15,5.44a2,2,0,0,0,.52.45h0a2,2,0,0,0,1,.28,2,2,0,0,0,2-2V24.69l4-4.57v9.8a2,2,0,0,0,3.61,1.21,12,12,0,0,0,0-14.36,2.06,2.06,0,0,0-.35-.36l2.69-3.08a16,16,0,0,1-4.86,24.95A2,2,0,0,0,30,40h0a2,2,0,0,0,2.85,1.81A20,20,0,0,0,38.59,10.3Z"/></g></g><g><rect class="cls-1" width="48" height="48"/></g><text x="0" y="63" fill="#000000" font-size="5px" font-weight="bold" font-family="'Helvetica Neue', Helvetica, Arial-Unicode, Arial, Sans-serif">Created by Division Icons</text><text x="0" y="68" fill="#000000" font-size="5px" font-weight="bold" font-family="'Helvetica Neue', Helvetica, Arial-Unicode, Arial, Sans-serif">from the Noun Project</text></svg>