<svg xmlns="http://www.w3.org/2000/svg" viewBox="0 0 48 60" x="0px" y="0px"><defs><style>.cls-1{fill:none;stroke:#000;stroke-miterlimit:10;stroke-width:0.25px;opacity:0;}</style></defs><title>Artboard 3</title><g><g><path d="M18,11H14a1.93,1.93,0,0,0-2,1.86V35.14A1.93,1.93,0,0,0,14,37h4a1.93,1.93,0,0,0,2-1.86V12.86A1.93,1.93,0,0,0,18,11Z"/><path d="M34,11H30a1.93,1.93,0,0,0-2,1.86V35.14A1.93,1.93,0,0,0,30,37h4a1.93,1.93,0,0,0,2-1.86V12.86A1.93,1.93,0,0,0,34,11Z"/></g></g><g><rect class="cls-1" width="48" height="48"/></g><text x="0" y="63" fill="#000000" font-size="5px" font-weight="bold" font-family="'Helvetica Neue', Helvetica, Arial-Unicode, Arial, Sans-serif">Created by Division Icons</text><text x="0" y="68" fill="#000000" font-size="5px" font-weight="bold" font-family="'Helvetica Neue', Helvetica, Arial-Unicode, Arial, Sans-serif">from the Noun Project</text></svg>