<svg xmlns="http://www.w3.org/2000/svg" viewBox="0 0 48 60" x="0px" y="0px"><defs><style>.cls-1{fill:none;stroke:#000;stroke-miterlimit:10;stroke-width:0.25px;opacity:0;}</style></defs><title>Artboard 29</title><g><g><path d="M8,28H8a2,2,0,0,0,2-2V22a8,8,0,0,1,8-8l16,0h0v3a1,1,0,0,0,1,1,1,1,0,0,0,.65-.26h0l6-5h0a1,1,0,0,0,0-1.44h0l-6-5h0A1,1,0,0,0,35,6a1,1,0,0,0-1,1v3h0L18,10h0A12,12,0,0,0,6,22v4A2,2,0,0,0,8,28Z"/><path d="M40,20h0a2,2,0,0,0-2,2v4a8,8,0,0,1-8,8h0L14,34h0V31a1,1,0,0,0-1-1,1,1,0,0,0-.65.26h0l-6,5h0a1,1,0,0,0,0,1.44h0l6,5h0A1,1,0,0,0,13,42a1,1,0,0,0,1-1V38h0l16,0h0A12,12,0,0,0,42,26V22A2,2,0,0,0,40,20Z"/></g></g><g><rect class="cls-1" width="48" height="48"/></g><text x="0" y="63" fill="#000000" font-size="5px" font-weight="bold" font-family="'Helvetica Neue', Helvetica, Arial-Unicode, Arial, Sans-serif">Created by Division Icons</text><text x="0" y="68" fill="#000000" font-size="5px" font-weight="bold" font-family="'Helvetica Neue', Helvetica, Arial-Unicode, Arial, Sans-serif">from the Noun Project</text></svg>