<svg xmlns="http://www.w3.org/2000/svg" viewBox="0 0 48 60" x="0px" y="0px"><defs><style>.cls-1{fill:none;stroke:#000;stroke-miterlimit:10;stroke-width:0.25px;opacity:0;}</style></defs><title>Artboard 10</title><g><g data-name="volume up"><path d="M24,6a2,2,0,0,0-1,.27h0l0,0a2,2,0,0,0-.5.43L12,16H6a2,2,0,0,0-2,2V30a2,2,0,0,0,2,2h6l10.46,9.26a2,2,0,0,0,.52.45h0A2,2,0,0,0,24,42a2,2,0,0,0,2-2V8A2,2,0,0,0,24,6Z"/><path d="M44,24a20,20,0,0,0-11.19-18A2,2,0,0,0,30,7.85v0a2,2,0,0,0,1.09,1.78,16,16,0,0,1,0,28.66A2,2,0,0,0,30,40.11h0a2,2,0,0,0,2.85,1.81A20,20,0,0,0,44,24Z"/><path d="M36,24a11.91,11.91,0,0,0-2.39-7.18A2,2,0,0,0,30,18V30a2,2,0,0,0,3.61,1.21A11.91,11.91,0,0,0,36,24Z"/></g></g><g><rect class="cls-1" width="48" height="48"/></g><text x="0" y="63" fill="#000000" font-size="5px" font-weight="bold" font-family="'Helvetica Neue', Helvetica, Arial-Unicode, Arial, Sans-serif">Created by Division Icons</text><text x="0" y="68" fill="#000000" font-size="5px" font-weight="bold" font-family="'Helvetica Neue', Helvetica, Arial-Unicode, Arial, Sans-serif">from the Noun Project</text></svg>