<?xml version="1.0" encoding="utf-8"?>
<!-- Generator: Adobe Illustrator 25.2.3, SVG Export Plug-In . SVG Version: 6.00 Build 0)  -->
<svg version="1.1" id="Layer_1" xmlns="http://www.w3.org/2000/svg" xmlns:xlink="http://www.w3.org/1999/xlink" x="0px" y="0px"
	 viewBox="0 0 71 55" style="enable-background:new 0 0 71 55;" xml:space="preserve">
<style type="text/css">
	.st0{fill:#FFFFFF;}
</style>
<path class="st0" d="M60.1,4.9c-4.5-2.1-9.4-3.6-14.5-4.5c-0.1,0-0.2,0-0.2,0.1c-0.6,1.1-1.3,2.6-1.8,3.7c-5.5-0.8-10.9-0.8-16.2,0
	c-0.5-1.2-1.2-2.6-1.8-3.7c0-0.1-0.1-0.1-0.2-0.1c-5.1,0.9-9.9,2.4-14.5,4.5c0,0-0.1,0-0.1,0.1C1.6,18.7-0.9,32.1,0.3,45.4
	c0,0.1,0,0.1,0.1,0.2c6.1,4.5,12,7.2,17.7,9c0.1,0,0.2,0,0.2-0.1c1.4-1.9,2.6-3.8,3.6-5.9c0.1-0.1,0-0.3-0.1-0.3
	c-1.9-0.7-3.8-1.6-5.5-2.6c-0.1-0.1-0.2-0.3,0-0.4c0.4-0.3,0.7-0.6,1.1-0.9c0.1-0.1,0.2-0.1,0.2,0c11.6,5.3,24.2,5.3,35.7,0
	c0.1,0,0.2,0,0.2,0c0.4,0.3,0.7,0.6,1.1,0.9c0.1,0.1,0.1,0.3,0,0.4c-1.8,1-3.6,1.9-5.5,2.6c-0.1,0-0.2,0.2-0.1,0.3
	c1.1,2.1,2.3,4,3.6,5.9c0.1,0.1,0.2,0.1,0.2,0.1c5.8-1.8,11.7-4.5,17.8-9c0.1,0,0.1-0.1,0.1-0.2C72.2,30.1,68.2,16.8,60.1,4.9
	C60.2,4.9,60.1,4.9,60.1,4.9z M23.7,37.3c-3.5,0-6.4-3.2-6.4-7.2s2.8-7.2,6.4-7.2c3.6,0,6.4,3.2,6.4,7.2
	C30.1,34.1,27.3,37.3,23.7,37.3z M47.3,37.3c-3.5,0-6.4-3.2-6.4-7.2s2.8-7.2,6.4-7.2c3.6,0,6.4,3.2,6.4,7.2
	C53.7,34.1,50.9,37.3,47.3,37.3z"/>
</svg>
