<?xml version="1.0" encoding="utf-8"?>
<!-- Generator: Adobe Illustrator 25.2.3, SVG Export Plug-In . SVG Version: 6.00 Build 0)  -->
<svg version="1.1" id="Layer_1" xmlns="http://www.w3.org/2000/svg" xmlns:xlink="http://www.w3.org/1999/xlink" x="0px" y="0px"
	 viewBox="0 0 128 128" style="enable-background:new 0 0 128 128;" xml:space="preserve">
<style type="text/css">
	.st0{fill-rule:evenodd;clip-rule:evenodd;fill:#FFFFFF;}
	.st1{fill:#FFFFFF;}
</style>
<g>
	<path class="st0" d="M64,1.58c-35.34,0-64,28.65-64,64c0,28.28,18.34,52.27,43.77,60.73c3.2,0.59,4.37-1.39,4.37-3.08
		c0-1.53-0.06-6.57-0.09-11.92c-17.8,3.87-21.56-7.55-21.56-7.55c-2.91-7.4-7.11-9.36-7.11-9.36c-5.81-3.97,0.44-3.89,0.44-3.89
		c6.43,0.45,9.81,6.6,9.81,6.6c5.71,9.78,14.97,6.96,18.62,5.32c0.57-4.14,2.23-6.96,4.06-8.56c-14.22-1.62-29.16-7.11-29.16-31.63
		c0-6.99,2.5-12.7,6.59-17.18c-0.66-1.61-2.86-8.12,0.62-16.94c0,0,5.37-1.72,17.6,6.56c5.11-1.42,10.58-2.13,16.02-2.15
		c5.44,0.02,10.92,0.74,16.03,2.15c12.22-8.28,17.58-6.56,17.58-6.56c3.48,8.82,1.29,15.32,0.63,16.94
		c4.1,4.48,6.59,10.19,6.59,17.18c0,24.58-14.97,29.99-29.22,31.58c2.3,1.99,4.34,5.88,4.34,11.85c0,8.56-0.07,15.46-0.07,17.56
		c0,1.7,1.15,3.7,4.4,3.07C109.69,117.83,128,93.85,128,65.58C128,30.23,99.35,1.58,64,1.58z"/>
	<path class="st1" d="M24.24,93.47c-0.14,0.32-0.64,0.41-1.1,0.2c-0.46-0.21-0.72-0.64-0.57-0.96c0.14-0.33,0.64-0.42,1.1-0.2
		C24.14,92.71,24.4,93.15,24.24,93.47L24.24,93.47z M23.45,92.89"/>
	<path class="st1" d="M26.83,96.36c-0.31,0.28-0.9,0.15-1.31-0.3c-0.42-0.45-0.5-1.04-0.19-1.33c0.31-0.28,0.89-0.15,1.31,0.3
		C27.07,95.48,27.15,96.07,26.83,96.36L26.83,96.36z M26.22,95.71"/>
	<path class="st1" d="M29.36,100.05c-0.39,0.27-1.03,0.02-1.43-0.55c-0.39-0.57-0.39-1.25,0.01-1.53c0.4-0.27,1.03-0.03,1.43,0.54
		C29.76,99.09,29.76,99.77,29.36,100.05L29.36,100.05z M29.36,100.05"/>
	<path class="st1" d="M32.81,103.61c-0.35,0.39-1.1,0.28-1.64-0.25c-0.56-0.52-0.72-1.25-0.36-1.64c0.36-0.39,1.11-0.28,1.66,0.25
		C33.02,102.49,33.19,103.23,32.81,103.61L32.81,103.61z M32.81,103.61"/>
	<path class="st1" d="M37.58,105.68c-0.16,0.5-0.87,0.73-1.6,0.52c-0.72-0.22-1.2-0.81-1.05-1.31c0.15-0.51,0.87-0.74,1.6-0.51
		C37.26,104.58,37.73,105.17,37.58,105.68L37.58,105.68z M37.58,105.68"/>
	<path class="st1" d="M42.82,106.06c0.02,0.53-0.6,0.97-1.36,0.97c-0.76,0.02-1.38-0.41-1.39-0.93c0-0.53,0.6-0.97,1.37-0.98
		C42.2,105.11,42.82,105.54,42.82,106.06L42.82,106.06z M42.82,106.06"/>
	<path class="st1" d="M47.69,105.23c0.09,0.51-0.44,1.04-1.19,1.18c-0.74,0.14-1.43-0.18-1.53-0.69c-0.09-0.53,0.45-1.06,1.19-1.19
		C46.92,104.4,47.6,104.71,47.69,105.23L47.69,105.23z M47.69,105.23"/>
</g>
</svg>
