<?xml version="1.0" encoding="utf-8"?>
<!-- Generator: Adobe Illustrator 25.2.3, SVG Export Plug-In . SVG Version: 6.00 Build 0)  -->
<svg version="1.1" id="Layer_1" xmlns="http://www.w3.org/2000/svg" xmlns:xlink="http://www.w3.org/1999/xlink" x="0px" y="0px"
	 viewBox="0 0 341.8 341.8" style="enable-background:new 0 0 341.8 341.8;" xml:space="preserve">
<style type="text/css">
	.st0{fill:#FFFFFF;}
</style>
<path class="st0" d="M341.8,172.7c0-20.7-16.8-37.5-37.5-37.5c-10.2,0-19.2,3.9-25.8,10.5c-25.5-18.3-60.9-30.3-100-31.8l17.1-80.1
	l55.5,11.7c0.6,14.1,12.3,25.5,26.7,25.5c14.7,0,26.7-12,26.7-26.7c0-14.7-12-26.7-26.7-26.7c-10.5,0-19.5,6-23.7,15L192,19.3
	c-1.8-0.3-3.6,0-5.1,0.9c-1.5,0.9-2.4,2.4-3,4.2L165,113.9c-39.9,1.2-75.6,12.9-101.5,31.8c-6.6-6.3-15.9-10.5-25.8-10.5
	C17,135.2,0.2,152,0.2,172.7c0,15.3,9,28.2,22.2,34.2c-0.6,3.6-0.9,7.5-0.9,11.4c0,57.6,66.9,104.2,149.8,104.2
	S321.1,276,321.1,218.3c0-3.9-0.3-7.5-0.9-11.1C332.5,201.2,341.8,188,341.8,172.7z M85.1,199.4c0-14.7,12-26.7,26.7-26.7
	s26.7,12,26.7,26.7s-12,26.7-26.7,26.7S85.1,214.1,85.1,199.4z M234.3,270c-18.3,18.3-53.1,19.5-63.3,19.5
	c-10.2,0-45.3-1.5-63.3-19.5c-2.7-2.7-2.7-7.2,0-9.9c2.7-2.7,7.2-2.7,9.9,0c11.4,11.4,36,15.6,53.7,15.6s42-4.2,53.7-15.6
	c2.7-2.7,7.2-2.7,9.9,0C237,263.1,237,267.3,234.3,270z M229.5,226.1c-14.7,0-26.7-12-26.7-26.7s12-26.7,26.7-26.7
	s26.7,12,26.7,26.7S244.2,226.1,229.5,226.1z"/>
</svg>
