<?xml version="1.0" encoding="utf-8"?>
<!-- Generator: Adobe Illustrator 25.2.3, SVG Export Plug-In . SVG Version: 6.00 Build 0)  -->
<svg version="1.1" id="Layer_1" xmlns="http://www.w3.org/2000/svg" xmlns:xlink="http://www.w3.org/1999/xlink" x="0px" y="0px"
	 viewBox="0 0 128 128" style="enable-background:new 0 0 128 128;" xml:space="preserve">
<style type="text/css">
	.st0{fill-rule:evenodd;clip-rule:evenodd;fill:#FFFFFF;}
</style>
<path class="st0" d="M64,0C28.7,0,0,28.7,0,64s28.7,64,64,64s64-28.7,64-64S99.3,0,64,0 M93.4,92.3c-1.1,1.9-3.6,2.5-5.5,1.3
	c0,0,0,0,0,0c-15-9.2-33.9-11.3-56.2-6.2c-2.1,0.5-4.3-0.9-4.8-3c-0.5-2.1,0.9-4.3,3-4.8l0,0c24.4-5.6,45.3-3.2,62.2,7.1
	C93.9,88,94.5,90.4,93.4,92.3 M101.2,74.9c-1.4,2.3-4.5,3.1-6.9,1.6C77.1,66,50.9,62.9,30.5,69.1c-2.7,0.6-5.4-1-6-3.7
	c-0.6-2.5,0.8-5,3.1-5.8c23.2-7.1,52.1-3.6,71.9,8.5C101.9,69.5,102.6,72.5,101.2,74.9C101.2,74.9,101.2,74.9,101.2,74.9
	 M101.9,56.7c-20.6-12.2-54.7-13.4-74.4-7.4c-3.1,1-6.5-0.7-7.5-3.9c-1-3.1,0.7-6.5,3.9-7.5c0.1,0,0.1,0,0.2,0
	c22.6-6.9,60.2-5.5,83.9,8.6c2.8,1.7,3.8,5.4,2.1,8.2C108.4,57.5,104.7,58.4,101.9,56.7"/>
</svg>
