<?xml version="1.0" encoding="utf-8"?>
<!-- Generator: Adobe Illustrator 25.2.3, SVG Export Plug-In . SVG Version: 6.00 Build 0)  -->
<svg version="1.1" id="Layer_1" xmlns="http://www.w3.org/2000/svg" xmlns:xlink="http://www.w3.org/1999/xlink" x="0px" y="0px"
	 viewBox="0 0 128 128" style="enable-background:new 0 0 128 128;" xml:space="preserve">
<style type="text/css">
	.st0{fill:#FFFFFF;}
</style>
<path class="st0" d="M125.5,33c-1.5-5.5-5.8-9.8-11.3-11.3c-10-2.7-50-2.7-50-2.7s-40,0-50,2.7C8.7,23.2,4.3,27.5,2.9,33
	C0.2,43,0.2,63.8,0.2,63.8s0,20.8,2.7,30.8c1.5,5.5,5.8,9.8,11.3,11.3c10,2.7,50,2.7,50,2.7s40,0,50-2.7c5.5-1.5,9.8-5.8,11.3-11.3
	c2.7-10,2.7-30.8,2.7-30.8S128.2,43,125.5,33z M51.4,83V44.6l33.3,19.2L51.4,83z"/>
</svg>
